<svg width="242" height="90" viewBox="0 0 242 90" fill="none" xmlns="http://www.w3.org/2000/svg">
<g clip-path="url(#clip0_49_11)">
<path d="M137.197 3.25707C130.27 4.86607 126.83 8.51607 126.796 14.2931C126.757 21.0201 130.525 24.1091 142.608 27.2591C148.481 28.7891 150.477 31.4411 147.699 34.0171C144.546 36.9391 138.376 35.0441 137.599 30.9121C137.214 28.8501 137.233 28.8561 130.762 29.2161L125.027 29.5341L125.303 31.3401C125.728 34.1241 128.025 38.4221 129.983 40.0981C135.785 45.0621 151.763 44.5531 157.233 39.2261L158.833 37.6681L159.14 39.4791C160.265 46.1421 167.032 52.4021 174.817 53.9831L177.317 54.4921L175.84 56.4271C170.966 62.8111 170.828 75.8671 175.564 82.6481C182.812 93.0231 203.208 92.7221 209.919 82.1421L211.168 80.1731V89.5641H242.778V79.4671H223.9V50.0511H211.168L211.143 54.5511C211.121 58.2271 211.022 58.8941 210.595 58.1931C208.176 54.2251 203.465 50.9281 198.847 49.9751L196.358 49.4601L198.884 47.5621C206.742 41.6561 211.636 30.8811 210.379 22.2551C207.074 -0.413927 174.421 -0.764925 161.984 21.7321C161.182 23.1801 160.499 24.4121 160.465 24.4691C160.431 24.5261 159.312 23.5131 157.976 22.2221C155.206 19.5391 152.981 18.5571 145.418 16.6841C138.381 14.9401 136.941 13.7171 139.306 11.4921C141.556 9.37707 146.455 10.7471 147.558 13.8011C148.205 15.5901 148.087 15.5731 155.568 15.0781L159.894 14.7911L159.618 13.0671C158.341 5.08007 148.289 0.681075 137.194 3.26007L137.197 3.25707ZM2.63501 23.2681V43.0231H15.367V27.2171H16.661C18.703 27.2171 19.938 28.7191 23.875 35.9981L27.557 42.8011L34.636 42.9221C38.529 42.9891 41.712 42.9251 41.712 42.7811C41.712 40.5561 33.778 27.7171 31.576 26.3791L30.369 25.6451L32.805 24.3711C41.836 19.6431 40.126 6.09807 30.229 3.97507C28.98 3.70807 22.655 3.50807 15.345 3.50807H2.63501V23.2631V23.2681ZM195.401 6.95207C215.271 12.1381 213.452 40.0161 192.577 50.1941C171.309 60.5641 152.355 43.5401 162.464 23.1491C168.362 11.2521 183.448 3.83307 195.398 6.95507L195.401 6.95207ZM24.14 12.4171C28.612 14.6781 25.645 18.8521 19.311 19.2121L15.368 19.4371V11.8521L19.21 11.8581C21.409 11.8611 23.516 12.1001 24.14 12.4151V12.4171ZM188.373 15.9101C184.877 16.8381 181.322 20.3711 181.319 22.9191C181.313 27.0821 184.641 28.5831 189.877 26.7811C193.08 25.6791 193.896 25.6791 194.489 26.7841C195.493 28.6631 192.202 30.5781 190.282 29.2311C189.317 28.5561 185.759 30.6851 185.723 31.9591C185.667 33.8771 190.521 34.6031 193.494 33.1211C202.936 28.4161 200.255 18.3161 190.462 21.6941C186.547 23.0441 185.706 23.1031 185.706 22.0171C185.706 20.3131 188.369 19.0811 189.531 20.2421C190.006 20.7171 193.606 18.3301 193.606 17.5391C193.606 16.3581 190.417 15.3621 188.369 15.9081L188.373 15.9101ZM174.201 25.3831C172.106 26.8991 172.007 26.5051 175.849 31.9591C178.214 35.3141 179.123 36.9711 179.033 37.7561C178.876 39.0981 177.371 39.4551 176.313 38.4001C175.641 37.7281 175.466 37.7811 173.875 39.1451C169.856 42.5881 175.965 45.5431 180.504 42.3541C185.491 38.8501 185.499 36.6761 180.541 29.4361C176.696 23.8191 176.519 23.7071 174.199 25.3861L174.201 25.3831ZM13.044 49.6211C5.86101 50.7541 1.65601 54.9541 1.60001 61.0511C1.54401 67.2721 5.57701 70.8161 15.567 73.3161C21.69 74.8491 23.706 76.0191 23.706 78.0351C23.706 83.7131 13.542 83.1451 12.467 77.4081C12.09 75.4061 12.138 75.4171 5.65501 75.7681L-0.0939941 76.0801L0.193006 77.8801C1.50401 86.1321 6.30201 89.5661 16.992 89.9011C25.469 90.1651 28.383 89.3441 32.084 85.6431L34.618 83.1091L35.549 84.3661C40.935 91.6501 59.129 92.1401 65.103 85.1591C66.85 83.1201 68.81 79.2781 69.01 77.5091C69.151 76.2631 69.111 76.2411 63.787 74.6261L58.424 72.9981L57.704 75.1641C55.251 82.5471 45.99 82.6311 43.956 75.2911C43.264 72.7961 43.348 66.8371 44.113 64.2691C45.958 58.0621 53.751 56.7881 56.913 62.1791C58.232 64.4291 57.878 64.3871 63.863 63.0341C69.561 61.7461 69.316 61.9741 68.017 59.1751C62.864 48.0881 45.542 45.4871 36.357 54.4161L33.795 56.9081L32.732 55.0941C30.083 50.5711 21.727 48.2481 13.05 49.6211H13.044ZM134.342 49.6321C129.479 50.4761 124.675 53.5361 121.961 57.5151C121.235 58.5811 121.216 58.4941 121.193 54.3281L121.17 50.0471H108.438V63.6571H95.706V50.0471H82.974V89.5601H95.706V73.7541H108.438V89.5601H121.17V80.6271L122.545 82.7001C128.266 91.3341 145.959 92.8501 154.011 85.3941C163.329 76.7681 161.501 57.1451 150.875 51.7231C146.774 49.6301 139.577 48.7191 134.34 49.6281L134.342 49.6321ZM20.183 57.7271C20.917 58.1071 21.778 59.1361 22.245 60.1941L23.047 62.0111L31.625 61.5981L31.344 63.8371C30.973 66.7991 30.807 66.9111 28.346 65.8231C27.187 65.3111 23.944 64.3181 21.135 63.6121C14.489 61.9471 13.662 61.5901 13.322 60.2371C12.692 57.7341 17.088 56.1251 20.187 57.7281L20.183 57.7271ZM141.871 59.2791C148.373 61.0851 149.69 76.0081 143.66 79.5571C139.157 82.2061 133.459 79.9511 132.123 74.9871C129.468 65.1241 134.387 57.2011 141.871 59.2791ZM194.951 59.2681C202.505 61.3661 202.351 78.3421 194.76 80.3871C188.657 82.0291 184.596 77.7881 184.627 69.8061C184.661 61.5121 188.59 57.5011 194.952 59.2701L194.951 59.2681Z" fill="black"/>
</g>
<defs>
<clipPath id="clip0_49_11">
<rect width="242" height="90" fill="white"/>
</clipPath>
</defs>
</svg>
